# xmcd
#
# Track frame offsets:
# 150
# 17287
# 37762
# 51565
# 64602
# 83392
# 97062
# 116829
# 131555
# 148880
#
# Disc length: 2186 seconds
#
#
# Revision: 0
# Processed by: cddbd v1.5.2PL0 Copyright (c) Steve Scherf et al.
# Submitted via: FreeRIP 2.951 
#
DISCID=8108880a
DTITLE=Benito di Paula - Benito Di Paula
DYEAR=1900
DGENRE=Ballad
TTITLE0=Amigo do Sol, Amigo da Lua
TTITLE1=Vai Ficar na Saudade
TTITLE2=A Vida é Dura
TTITLE3=Do Jeito que a Vida Quer
TTITLE4=Charlie Brown
TTITLE5=Ah! Como eu Amei
TTITLE6=Não Precisa me Perdoar
TTITLE7=Mulher Brasileira
TTITLE8=Razão e Desejo
TTITLE9=Tudo Está no Seu Lugar
EXTD=
EXTT0=
EXTT1=
EXTT2=
EXTT3=
EXTT4=
EXTT5=
EXTT6=
EXTT7=
EXTT8=
EXTT9=
PLAYORDER=
